<svg width="32" height="32" viewBox="0 0 32 32" fill="none" xmlns="http://www.w3.org/2000/svg">
<g clip-path="url(#clip0_440_98)">
<mask id="mask0_440_98" style="mask-type:alpha" maskUnits="userSpaceOnUse" x="0" y="0" width="32" height="32">
<path d="M32 16C32 7.16344 24.8366 0 16 0C7.16344 0 0 7.16344 0 16C0 24.8366 7.16344 32 16 32C24.8366 32 32 24.8366 32 16Z" fill="white"/>
</mask>
<g mask="url(#mask0_440_98)">
<path d="M32 0H0V32H32V0Z" fill="#064061"/>
<path d="M16.1637 4.64139C7.43592 6.02373 1.48128 14.2196 2.86363 22.9474C4.24597 31.6751 12.4418 37.6298 21.1696 36.2474C29.8974 34.8651 35.852 26.6692 34.4696 17.9414C33.0873 9.21368 24.8914 3.25904 16.1637 4.64139Z" fill="#98DAFF"/>
<path d="M7.1272 17.8552C7.14263 18.7391 7.6256 19.5787 8.46988 20.1892C9.31416 20.7997 10.4506 21.1311 11.6291 21.1105C12.8077 21.0899 13.9319 20.719 14.7543 20.0795C15.5768 19.4399 16.0302 18.584 16.0147 17.7001" fill="#064061"/>
<path d="M8.39833 14.277C8.38976 13.7861 8.08438 13.3934 7.71625 13.3999C7.34811 13.4063 7.05663 13.8094 7.0652 14.3003C7.07376 14.7911 7.37914 15.1838 7.74727 15.1774C8.11541 15.1709 8.4069 14.7678 8.39833 14.277Z" fill="#064061"/>
<path d="M15.5083 14.1528C15.4997 13.662 15.1944 13.2693 14.8262 13.2757C14.4581 13.2821 14.1666 13.6853 14.1752 14.1761C14.1837 14.6669 14.4891 15.0596 14.8573 15.0532C15.2254 15.0468 15.5169 14.6437 15.5083 14.1528Z" fill="#064061"/>
</g>
</g>
<defs>
<clipPath id="clip0_440_98">
<rect width="32" height="32" fill="white"/>
</clipPath>
</defs>
</svg>
