<svg width="48" height="48" viewBox="0 0 48 48" fill="none" xmlns="http://www.w3.org/2000/svg">
<g clip-path="url(#clip0_436_234)">
<mask id="mask0_436_234" style="mask-type:alpha" maskUnits="userSpaceOnUse" x="0" y="0" width="48" height="48">
<path d="M48 24C48 10.7452 37.2548 0 24 0C10.7452 0 0 10.7452 0 24C0 37.2548 10.7452 48 24 48C37.2548 48 48 37.2548 48 24Z" fill="white"/>
</mask>
<g mask="url(#mask0_436_234)">
<path d="M48 0H0V48H48V0Z" fill="#45AFEA"/>
<path d="M8.46201 25.9157L33.3307 46.0539C36.7643 48.8345 41.8019 48.305 44.5824 44.8713L64.7207 20.0027C67.5012 16.569 66.9717 11.5314 63.5381 8.75093L38.6694 -11.3873C35.2357 -14.1678 30.1982 -13.6384 27.4177 -10.2047L7.27941 14.664C4.4989 18.0976 5.02837 23.1352 8.46201 25.9157Z" fill="#064061"/>
<path d="M25.8407 19.3578C28.266 21.0919 30.8998 21.509 33.7422 20.6093" stroke="white" stroke-width="2.22222" stroke-linecap="round"/>
<path d="M22.0657 13.3601C22.1809 12.6328 21.8321 11.9732 21.2866 11.8868C20.7412 11.8004 20.2056 12.32 20.0904 13.0473C19.9752 13.7746 20.324 14.4342 20.8695 14.5206C21.415 14.607 21.9506 14.0874 22.0657 13.3601Z" fill="white"/>
<path d="M40.5026 16.2803C40.6178 15.553 40.269 14.8933 39.7235 14.8069C39.178 14.7206 38.6425 15.2401 38.5273 15.9674C38.4121 16.6947 38.7609 17.3544 39.3064 17.4408C39.8519 17.5272 40.3874 17.0076 40.5026 16.2803Z" fill="white"/>
</g>
</g>
<defs>
<clipPath id="clip0_436_234">
<rect width="48" height="48" fill="white"/>
</clipPath>
</defs>
</svg>
