<svg width="32" height="32" viewBox="0 0 32 32" fill="none" xmlns="http://www.w3.org/2000/svg">
<path d="M25.7333 10.56V17.4267C25.7333 21.5333 23.3866 23.2933 19.8666 23.2933H8.14663C7.54663 23.2933 6.9733 23.24 6.43996 23.12C6.10663 23.0667 5.78664 22.9734 5.49331 22.8667C3.49331 22.12 2.27997 20.3867 2.27997 17.4267V10.56C2.27997 6.45331 4.62663 4.69336 8.14663 4.69336H19.8666C22.8533 4.69336 25 5.96002 25.5733 8.85335C25.6666 9.38669 25.7333 9.93331 25.7333 10.56Z" stroke="white" stroke-width="1.5" stroke-miterlimit="10" stroke-linecap="round" stroke-linejoin="round"/>
<path d="M29.7347 14.5601V21.4268C29.7347 25.5335 27.3881 27.2935 23.8681 27.2935H12.1481C11.1614 27.2935 10.2681 27.1602 9.49475 26.8669C7.90808 26.2802 6.82807 25.0669 6.44141 23.1202C6.97474 23.2402 7.54807 23.2935 8.14807 23.2935H19.8681C23.3881 23.2935 25.7347 21.5335 25.7347 17.4268V10.5601C25.7347 9.93347 25.6814 9.37352 25.5748 8.85352C28.1081 9.38685 29.7347 11.1735 29.7347 14.5601Z" stroke="white" stroke-width="1.5" stroke-miterlimit="10" stroke-linecap="round" stroke-linejoin="round"/>
<path d="M13.9979 17.5199C15.942 17.5199 17.5179 15.9439 17.5179 13.9999C17.5179 12.0558 15.942 10.4799 13.9979 10.4799C12.0539 10.4799 10.4779 12.0558 10.4779 13.9999C10.4779 15.9439 12.0539 17.5199 13.9979 17.5199Z" stroke="white" stroke-width="1.5" stroke-miterlimit="10" stroke-linecap="round" stroke-linejoin="round"/>
<path d="M6.37329 11.0667V16.9333" stroke="white" stroke-width="1.5" stroke-miterlimit="10" stroke-linecap="round" stroke-linejoin="round"/>
<path d="M21.6289 11.067V16.9337" stroke="white" stroke-width="1.5" stroke-miterlimit="10" stroke-linecap="round" stroke-linejoin="round"/>
</svg>
